<svg class="edgtf-grunge-effect edgtf-grunge-effect-top" xmlns="http://www.w3.org/2000/svg" width="1920" height="24.921" xml:space="preserve" style="fill:#fff"><path d="M1916.162 17.566c-2.827-.237-5.251.155-7.729.646-3.125.619-6.052 1.516-9.756 1.104-2.479-.273-2.378-1.177-5.267-.728-1.556.243-2.55 1.429-4.247 1.768-4.677.945-2.095-.246-5.312-.516-3.044-.255-5.047.987-8.248 1.164-4.335.242-3.551-.847-6.231-1.586-2.656-.731-4.96-.193-7.595.183-2.956.424-3.944.4-6.901.271-6.557-.287-13.093-.471-19.354-1.453-3.043-.484-5.452-1.207-8.489-1.57-3.248-.393-5.113-.632-7.983-1.538-2.905-.922-3.205-1.081-7.206-1.045-3.607.033-6.545.336-9.222-.794-4.11-1.736-2.174-1.765-8.156-1.063-1.969.229-7.49.647-9.269.06-3.646-1.202-.867-2.096-6.136-2.401-2.954-.168-7.023.461-9.802.082-2.567-.351-2.52-1.898-5.752-1.861-2.338.03-3.935 2.021-6.176 2.463-3.58.706-6.277.028-9.223-.664-4.565-1.074-4.842-.781-9.649-.188-4.415.541-5.35.175-7.303-1.484-2.021-1.713-.646-1.821-5.796-1.485-1.579.104-1.691.52-3.818.483-.474-.416-1.239-.656-2.309-.714-10.148-1.062-23.673.61-33.08 2.235-6.053 1.048-11.889 1.996-18.274 2.65-4.646.479-10.528-.008-14.892.669-3.539.548-4.827 1.499-9.223 1.188-4.701-.33-2.386-.005-3.818-1.687-.755-.886.273-1.767-2.335-2.354-2.637-.597-5.029.439-7.323.912-9.234 1.899-3.937-2.313-9.521-2.836-2.718-.255-10.791 2.808-10.134-.591-2.49-.306-4.517-.14-6.966.043-.449.421-1.21.669-2.281.741-1.361-.135-2.578-.396-3.649-.788-4.459-.467-9.537 1.443-13.563.552-.836-.186-1.965-1.091-2.668-1.403-4.102.755-6.347 1.439-11.113 1.527-3.856.07-11.104 2.121-14.044.165-2.761.476-8.326 1.549-11.255.906-3.89-.853-1.057-3.613-3.683-5.176-3.589-2.134-7.718-1.03-12.206-.24-2.81.492-5.654.551-8.567.211-2.724-.318-5.401-1.027-8.226-1.133-2.021-.078-3.66.337-4.951-.541-.743-.497-.66-.843-2.188-.753-.885.052-1.393.336-2.349.121-.605-.141-.655-.414-1.387-.516-.683-.094-1.931.005-2.603.077-1.527.164-2.885.676-4.527.436-1.855-.271-1.499-1.32-3.851-1.077-1.573.165-3.13.995-5.015.521-.608-.151-.648-.41-1.389-.515-.594-.08-1.98-.026-2.571.056-1.718.233-3.17 1.246-5.222 1.094-1.505-.115-2.597-.948-3.986-.665-1.389.279-1.781.991-2.545 1.484-.581.376-1.346.674-2.48.57-.877-.079-.824-.477-1.914-.256-1.219.247-1.251 1.377-3.075 1.023-.614-.121-.591-.48-1.381-.533-.856-.06-1.709.33-2.142.577-.654.369-1.169 1.01-2.368 1.14-1.061.115-1.709-.379-2.641-.333-.864.045-1.47.817-1.901 1.087-1.119.701-3.84.914-4.52 1.721-.334.394-.049 1.13-1.257 1.369-.884.177-1.743-.239-2.734-.255-1.533-.025-1.917.2-3.075.569-.772.246-1.453.657-2.436.509-.504-.079-1.162-.555-1.594-.716-1.112-.422-2.75-.615-4.248-.668-.51-.862.737-2.187-.222-2.969-.329-.266-1.256-.42-1.66-.668-.712-.428-.107-.925-1.61-.583-.672.154-1.347.66-1.756.917-.749.464-1.17.449-2.11.754-1.077.35-1.682.987-2.395 1.466-.769.52-1.703.886-2.634 1.34-1.038.507-1.856.998-3.177 1.386-1.328.393-2.807.672-4.052 1.118-1.594.569-3.383.773-5.372.616-.817-.426-1.061-.666-2.288-.709-.481-.016-1.19.016-1.674.049-.603.044-.816.041-1.37.174-1.717.41-2.789 1.302-4.009 1.931.895-.734 1.044-2.625-1.861-2.286-.518.058-.7.319-1.248.319-.631 0-.648-.296-1.271-.33a3.377 3.377 0 0 0-1.164.087c-1.274.115-2.226.89-3.375 1.016-1.119.121-1.413-.254-2.563-.255-1.028-.005-1.917.262-2.753.489-1.124.305-.766.496-1.772.084-.723-.299-.402-.636-1.754-.514-.908.083-1.459.856-2.589.758-.965-1.119-2.947-.141-4.65-.228-1.606-.085-2.766-.504-4.525-.246-.767.114-1.139.427-1.883.517-.61.069-1.342-.075-1.968-.027-1.923.141-3.704.832-5.839.581-.821-.095-.867-.332-1.871-.311-.507.008-1.529.205-1.979.301-1.192.259-2.397.766-3.813.855-1.378.086-2.248-.556-3.303-.547-.688.009-.517.201-1.188.261-1.613.151-3.372.012-3.397-.821-.78.1-1.452.603-2.446.564-1.331-.054-1.059-.672-2.545-.619-1.297.046-1.799.57-3.231.589-1.017.014-1.65-.026-2.593.192-.92.21-1.208.665-2.044.859-1.025.24-1.291-.145-1.945-.165-1.899-.06-2.052.714-3.544 1.132-1.676.471-.756-.171-2.107-.319-.657-.071-1.05.277-1.449.455-1.208.55-2.324 1.309-3.688 1.762-2.356.782-6.08-.678-6.588-1.69-.228-.46-.054-.915-.349-1.382-.466-.742-.91-1.431-1.043-2.203l-6.415-.026c-1.496.408-3.271.964-4.096 1.169-1.22.303-4.514 1.369-5.986 1.391-3.706.055-5.392-1.354-9.369-1.197-7.354.292-10.081 3.463-17.732 3.32-4.211-.077-2.322-1.347-7.604-.117a14.325 14.325 0 0 0-2.859.974c-2.017-.207-3.924-.396-5.426-.455-4.903-.189-8.895.274-11.98 1.137-.467-.557-.783-.983-3.381-1.372-2.481-.373-6.301.138-8.687.364-2.919.276-2.594 1.245-6.915 1.068-8.382-.346-14.488-2.908-23.382-1.558-3.28.502-6.112 1.569-9.417 2.021-4.926.669-4.476-.527-8.199-1.313-3.991-.844-5.052.879-7.923 1.378-3.486.609-8.909.246-13.132.157a108.419 108.419 0 0 0-6.908-.353 28.666 28.666 0 0 1-1.207-.269c-1.535-.371-1.231-.94-3.283-1.125-3.004-.266-3.341.682-5.745.94-2.361.253-5.179-.195-7.395-.251-.396-.479-1.163-.648-2.31-.505-1.289.229-2.453.543-3.494.942-1.528.326-3.427.422-5.205.587-2.029-.555-4.228-.952-6.593-1.289-6.166-.88-13.001-.299-18.787.939-1.024.06-2.138.179-3.413.379-4.019.63-6.745.979-10.372-.267-2.256-.773-3.426-1.993-6.3-2.441-5.476-.853-13.285 2.028-18.499 2.616-5.44.614-13.169.075-17.978-1.17-3.102-.804-3.929-1.824-4.155-3.314-.042-.278-.034-3.758-.298-3.707-3.894.751-7.205 1.383-10.77-.271-2.521-1.172.689-1.572-4.254-1.315-2.497.13-4.354 1.161-6.99.574-2.004-.448-2.46-1.644-4.216-2.254-2.86-.991-5.583-.365-8.5.235-4.299.882-7.842 1.311-12.582.82-2.152-.225-3.479-.551-5.287.176-.668.271-3.016 3.272-2.668 3.297-1.919-.137-2.151-1.418-4.587-1.05-.673 1.184-.973 3.537-4.183 4.035-.618.096-3.074-.138-3.818-.152-3.742-.074-3.403.503-6.091 1.262-4.968 1.397-5.975-3.271-8.461-4.043-2.09-.649-4.348-.119-6.444.216-3.424.544-5.653.209-9.167.066-1.869-.08-4.222.22-5.99.023-1.196-.135-2.291-.91-3.472-.91-2.406.013-4.813.033-7.217.063-3.774-.062-4.969-.677-8.491-.876-2.561-.142-4.922.194-7.439-.124.652-3.376-7.333-.336-10.089 0-3.158.385-5.251.064-8.063.732-3.55.846-8.444 3.747-13.273 2.828-3.138-.595-.851-2.563-5.569-2.682-4.104-.103-7.12 1.96-11.671 1.809-3.085-.1-4.547-1.071-7.638-.952-3.901.143-5.363 2.318-9.795 1.808-2.36-.273-3.037-1.313-5.178-1.602-3.233 1.833-12.34 3.598-12.35-.066-7.077.52-8.02 2.902-13.77.063-2.173.399-4.753 1.331-7.135 1.588-6.534.699-4.635-1.225-8.217-2.424-4.892-1.636-10.98 1.167-13.736 2.651-6.426 3.466-9.521-.26-16.485-.445-.153-1.389-.223-2.604-4.229-2.391-2.529.136-2.314 1.327-5.255.772-1.879-.354-1.52-1.331-4.285-1.614a157.5 157.5 0 0 1-4.009.111c-2.764-.336-2.166-1.07-3.726-1.735-2.294-.974-.621-.271-3.915-.812-1.217.129-2.372.073-3.465-.174-2.601-.728-1.181-2.022-4.547-2.563-2.478-.397-6.83.096-9.391.334-4.677.44-9.21 1.409-12.882 2.727-1.717.616-13.896 5.863-12.727 2.338-2.09.083-3.881 2.265-3.726 2.265-2.247-.005-3.112-.614-4.005-1.49-5.615.499-1.866 4.332-8.73 3.403-1.48 1.845.084 4.638-5.66 5.233-4.089.424-9.57-.959-13.375-1.439-3.002-.379-5.912-.529-8.979-.734-3.303-.215-6.152-1.852-9.614-1.13-2.292.477-3.031 1.663-5.769 1.883-3.651.288-7.938-1.003-10.447-1.995-5.248-2.071-8.402-4.207-16.201-4.212-5.491-.004-10.732.96-16.216.95-2.648-.005-5.182-.25-7.417-.885-2.006-.566-4.701-2.881-6.882-2.775-.721 1.25-1.375 2.741-3.511 3.728-2.413 1.114-2.721.454-5.077-.083-2.83-.643-3.905.24-6.673.215-3.05-.027-2.552-1.49-4.903-1.62-2.714-.151-3.112 1.498-5.591.53-.879-.341-2.182-1.763-2.578-2.267-.595-.752-.035-2.269-2.833-2.228-1.521.018-2.376 1.411-3.914 1.586-4.321.486-3.375-2.541-3.771-3.702-.167-.486-.8-2.05-2.676-1.754-1.42.22-1.105 1.037-1.569 1.506-1.92 1.938-5.335 3.562-6.777 5.593-.4.563-.232 1.779-1.239 2.213-1.209.518-3.248.393-3.786-.346-1.942.797-.593 2.482-3.818 2.936-.647-.619-1.688-1.114-3-1.301-.429 1.557-1.336 2.509-2.784 3.912-.89.862-.834 2.377-2.772 2.633a57.496 57.496 0 0 1-2.186-.153c-2.043-.511-3.44-2.291-5.176-2.932-6.708-2.477-8.101.133-13.149 1.466-2.62-.015-5.244.049-7.85.175-1.689-.428-3.21-1.113-4.858-1.786-2.218-.904-3.173-1.394-6.032-1.332-2.686.056-4.896 1.081-7.81.522-2.661-.513-2.618-1.461-4.263-2.486-1.267.284-4.461 1.354-5.785 1.421-2.382.123-2.332-.158-3.577-1.345-.914-.869-.656-.834-1.967-1.321-1.078-.4-2.151-.806-3.234-1.24-1.883-.756-4.026-1.066-5.97-1.506-2.693-.609-4.944-.902-7.628-1.423-2.629-.508-5.104-1.821-7.711-2.461-2.596-.637-5.189-.536-7.799-.933-2.774-.424-5.267-1.923-7.957-2.688-2.504-.71-4.575-2.583-7.251-2.55-.948.011-2.034-.15-2.97-.026-1.019.136-1.422.607-2.164.791-.936.231-1.825.102-2.759.408-.879.291-1.441 1.314-2.16 1.579-1.831.675-3.894-.3-5.733.146-.891.215-.976.869-1.866 1.085-.889.217-2.084-.119-3.002-.073-2.423.123-4.365 1.025-6.936 1.003-4.073-.036-7.017.589-10.771 1.974-2.217.819-3.669 2.05-5.683 3.244-1.487.882-3.215 1.342-4.918 1.913a75.064 75.064 0 0 1-5.138 1.506c-1.039.266-2.02-.063-3.001.165-.885.206-.97.878-1.844 1.093-1.162.287-2.542-.105-3.789.168-3.717.815-6.12 2.897-9.996 2.031-1.288-.287-2.653-.829-3.981-.859-1.792-.042-3.118.979-4.825 1.2-1.613.209-4.009.015-5.571-.18.646-3.412-5.895-.217-8.101.018-1.059.114-2.187.184-3.234-.053-.693-.155-1.689-.978-2.288-1.015-1.302-.082-3.846 1.075-5.228 1.561-3.355 1.181-4.472 5.155-8.098 5.979-3.785.86-8.931-.05-12.839-.05-4.263 0-8.526-.01-12.789 0-1.179.003-2.854.324-3.986.05-.892-.214-.972-.876-1.866-1.084-.95-.224-2.039.265-3.001.1-1.095-.188-1.856-.898-2.951-1.083-1.342-.228-2.572.188-3.935-.169-1.17-.306-1.68-.719-2.951-.788-1.922-.104-3.987-.099-5.852.242a6.262 6.262 0 0 1-2.78.82 89.933 89.933 0 0 1-2.263-.109c-.871.214-.964.872-1.843 1.087-1.702.418-4.181-.05-5.954-.05-3.965 0-8.382.497-11.833-.955-1.725-.725-3.169-1.824-4.867-2.734-1.484-.797-2.805-2.203-4.405-2.749-1.638-.558-3.042-.387-4.662-1.314-2.457-1.404-4.87-2.846-7.778-2.754-3.805.122-7.483 1.496-11.311 1.61-3.691.108-6.625 1.021-10.176 1.704-2.001.387-4.056-.104-6.015.259-1.973.363-4.16 1.232-6.116 1.799-.997.29-2.732.896-3.688 1.005-1.691.194-.902-.178-2.164-.551-1.919-.567-4.208-1.649-5.903-1.985-4.789-.951-9.511-1.238-14.537-1.203-3.332.023-6.262-1.435-9.307-2.624-2.831-1.107-5.019-.923-8.04-.809-7.301.278-14.481-2.123-21.749-.437-8.791 2.039-15.957.045-24.847.867-7.518.697-12.238 4.376-19.53.953-5.683-2.67-5.906-6.172-13.748-4.629-2.655.521-2.648.081-4.884-.394-2.126-.445-3.043-.23-5.196.032-3.376.416-5.377-1.065-8.604-1.023-3.842.051-3.348 1.585-5.211 2.613C5.166 7.608 2.987 6.427 0 5.819v19.102h1920.023v-6.753c-1.143-.194-2.256-.47-3.861-.602z"/></svg>